<?xml version="1.0" encoding="utf-8"?>
<!-- Generator: Adobe Illustrator 21.0.0, SVG Export Plug-In . SVG Version: 6.00 Build 0)  -->
<svg version="1.1" id="Camada_1" xmlns="http://www.w3.org/2000/svg" xmlns:xlink="http://www.w3.org/1999/xlink" x="0px" y="0px"
	 viewBox="0 0 60 60" style="enable-background:new 0 0 60 60;" xml:space="preserve">
<style type="text/css">
	.st0{fill:#010101;}
</style>
<g>
	<g>
		<g>
			<g>
				<path class="st0" d="M30,43.5c4.1,0,7.4-3.4,7.4-7.4s-3.3-7.5-7.4-7.5s-7.3,3.3-7.3,7.4S26,43.5,30,43.5z M30,30
					c3.3,0,6,2.7,6,6s-2.7,6-6,6s-6-2.7-6-6C24.2,32.7,26.7,30,30,30z"/>
				<path d="M30,43.9c-4.3,0-7.8-3.5-7.8-7.8s3.5-7.8,7.8-7.8c4.4,0,7.8,3.5,7.8,7.8S34.4,43.9,30,43.9z M30,28.9c-3.9,0-7,3.2-7,7
					s3.2,7,7,7s7-3.2,7-7S34,28.9,30,28.9z M30,42.4c-3.5,0-6.3-2.8-6.3-6.3c0.1-3.5,2.9-6.3,6.3-6.3c3.5,0,6.3,2.8,6.3,6.3
					C36.4,39.6,33.5,42.4,30,42.4z M30,30.4c-3,0-5.6,2.4-5.6,5.6c0,3,2.6,5.6,5.6,5.6c3.2,0,5.6-2.6,5.6-5.6S33.2,30.4,30,30.4z"/>
			</g>
		</g>
	</g>
	<g>
		<g>
			<g>
				<path class="st0" d="M34.3,45.7h-8.5c-4.9,0-8.9,3.9-8.9,8.9v3.8c0,0.5,0.2,0.7,0.7,0.7h24.7c0.5,0,0.7-0.2,0.7-0.7v-3.8
					C43.1,49.7,39.1,45.7,34.3,45.7z M41.7,57.6H18.3v-3c0-4.1,3.3-7.4,7.4-7.4h8.5c4.1,0,7.4,3.3,7.4,7.4v3H41.7z"/>
				<path d="M42.3,59.4H17.6c-0.6,0-1.1-0.5-1.1-1.1v-3.8c0-5.1,4.1-9.2,9.2-9.2h8.5c2.4,0,4.7,1,6.6,2.8c1.7,1.7,2.7,4,2.7,6.4v3.8
					C43.4,58.9,42.9,59.4,42.3,59.4z M25.7,46c-4.6,0-8.5,3.8-8.5,8.5v3.8c0,0.2,0.1,0.4,0.4,0.4h24.7c0.2,0,0.4-0.1,0.4-0.4v-3.8
					c0-2.2-0.9-4.4-2.4-6c-1.6-1.6-3.8-2.6-6-2.6L25.7,46L25.7,46z M42,57.9H18v-3.4c0-4.3,3.5-7.8,7.8-7.8h8.5
					c4.3,0,7.8,3.5,7.8,7.8L42,57.9L42,57.9z M18.7,57.2h22.5v-2.7c0-3.9-3.2-7-7-7h-8.5c-3.9,0-7,3.2-7,7V57.2L18.7,57.2z"/>
			</g>
		</g>
	</g>
</g>
<g>
	<path d="M39.6,9.6c-0.7-0.2-1.3-0.4-1.9-0.7c-1.6-0.7-3.1-1.4-5.6-0.3c-0.3,0.1-0.4,0.5-0.3,0.8c0.1,0.3,0.5,0.4,0.8,0.3
		c2.1-0.9,3.4-0.3,4.7,0.3c0.6,0.3,1.3,0.6,2.1,0.8c0.3,0.1,0.6-0.1,0.7-0.4C40.1,10,39.9,9.7,39.6,9.6L39.6,9.6z"/>
	<path d="M20.8,10.7c0.8-0.2,1.4-0.5,2.1-0.8c1.4-0.6,2.6-1.2,4.7-0.3c0.3,0.1,0.6,0,0.8-0.3c0.1-0.3,0-0.6-0.3-0.8
		c-2.6-1-4-0.4-5.6,0.3c-0.6,0.3-1.2,0.5-1.9,0.7c-0.3,0.1-0.5,0.4-0.4,0.7C20.1,10.6,20.5,10.8,20.8,10.7L20.8,10.7z"/>
</g>
<g>
	<path d="M39.6,13c-0.7-0.2-1.3-0.4-1.9-0.7c-1.6-0.7-3.1-1.4-5.6-0.3c-0.3,0.1-0.4,0.5-0.3,0.8c0.1,0.3,0.5,0.4,0.8,0.3
		c2.1-0.9,3.4-0.3,4.7,0.3c0.6,0.3,1.3,0.6,2.1,0.8c0.3,0.1,0.6-0.1,0.7-0.4C40.1,13.4,39.9,13.1,39.6,13L39.6,13z"/>
	<path d="M20.8,14.2c0.8-0.2,1.4-0.5,2.1-0.8c1.4-0.6,2.6-1.2,4.7-0.3c0.3,0.1,0.6,0,0.8-0.3c0.1-0.3,0-0.6-0.3-0.8
		c-2.6-1.1-4-0.4-5.6,0.3c-0.6,0.3-1.2,0.5-1.9,0.7c-0.3,0.1-0.5,0.4-0.4,0.7C20.1,14.1,20.5,14.2,20.8,14.2L20.8,14.2z"/>
</g>
<g>
	<path d="M39.6,16.5c-0.7-0.2-1.3-0.4-1.9-0.7c-1.6-0.7-3.1-1.4-5.6-0.3c-0.3,0.1-0.4,0.5-0.3,0.8c0.1,0.3,0.5,0.4,0.8,0.3
		c2.1-0.9,3.4-0.3,4.7,0.3c0.6,0.3,1.3,0.6,2.1,0.8c0.3,0.1,0.6-0.1,0.7-0.4C40.1,16.9,39.9,16.6,39.6,16.5L39.6,16.5z"/>
	<path d="M20.8,17.6c0.8-0.2,1.4-0.5,2.1-0.8c1.4-0.6,2.6-1.2,4.7-0.3c0.3,0.1,0.6,0,0.8-0.3c0.1-0.3,0-0.6-0.3-0.8
		c-2.6-1-4-0.4-5.6,0.3c-0.6,0.3-1.2,0.5-1.9,0.7c-0.3,0.1-0.5,0.4-0.4,0.7C20.1,17.5,20.5,17.7,20.8,17.6L20.8,17.6z"/>
</g>
<path d="M18.5,5.2c1.5,0.1,2.6-0.4,3.7-0.9c2.1-0.9,3.9-1.8,7.9,0.7c3.9-2.4,5.8-1.6,7.9-0.7c1.1,0.5,2.2,1,3.8,0.8
	c0.5,0,1,0.3,1.1,0.9l0,0.1h0v15.5c0,0.5-0.4,1-1,1h0c-2.1,0.2-3.4-0.4-4.6-1c-1.6-0.7-3.1-1.4-6.5,0.8c-0.3,0.2-0.8,0.2-1.1,0
	c-3.4-2.3-4.9-1.6-6.5-0.8c-1.3,0.6-2.6,1.2-4.7,1c-0.5,0-0.9-0.5-0.9-1h0V6.2c0-0.5,0.4-1,1-1C18.4,5.2,18.5,5.2,18.5,5.2L18.5,5.2
	z M30.6,7v13.2c3.5-2,5.3-1.2,7.3-0.3c0.8,0.4,1.7,0.8,2.9,0.9V7.2c-1.5-0.1-2.6-0.6-3.7-1C35.5,5.4,34,4.7,30.6,7L30.6,7z
	 M29.5,20.2V7c-3.4-2.2-4.8-1.6-6.5-0.8c-1,0.5-2.1,1-3.7,1v13.5c1.1-0.1,2-0.5,2.9-0.9C24.1,19,25.9,18.2,29.5,20.2z"/>
</svg>
