<?xml version="1.0" encoding="utf-8"?>
<!-- Generator: Adobe Illustrator 21.0.0, SVG Export Plug-In . SVG Version: 6.00 Build 0)  -->
<svg version="1.1" id="Camada_1" xmlns="http://www.w3.org/2000/svg" xmlns:xlink="http://www.w3.org/1999/xlink" x="0px" y="0px"
	 viewBox="0 0 60 60" style="enable-background:new 0 0 60 60;" xml:space="preserve">
<style type="text/css">
	.st0{fill:#010101;}
</style>
<g>
	<g>
		<g>
			<path class="st0" d="M20.7,24.8c0.3-0.3,0.3-0.8,0-1.1l-5.5-5.6l2.1-2.1c0.2-0.2,0.3-0.5,0.2-0.8c-0.1-0.3-0.3-0.5-0.6-0.5
				L5.5,12.6c-0.2-0.1-0.5,0-0.7,0.2s-0.2,0.4-0.2,0.6l2,11.4c0.1,0.3,0.3,0.5,0.5,0.6c0.3,0.1,0.5,0,0.8-0.2l2.1-2.1l5.6,5.6
				c0.2,0.2,0.3,0.2,0.5,0.2l0,0c0.2,0,0.4-0.1,0.5-0.2L20.7,24.8z M10.5,21.7c-0.2-0.2-0.3-0.2-0.5-0.2l0,0c-0.2,0-0.4,0.1-0.5,0.2
				l-1.6,1.5l-1.6-8.9l8.9,1.7l-1.6,1.5c-0.3,0.3-0.3,0.8,0,1.1l5.5,5.6l-3,3L10.5,21.7z"/>
			<path d="M16,29.7c-0.4,0-0.6-0.1-0.9-0.4L9.9,24l-1.8,1.8C7.9,26,7.5,26.2,6.9,26c-0.5-0.2-0.8-0.5-0.9-1L4,13.5
				c0-0.4,0.1-0.7,0.4-1c0.3-0.4,0.8-0.5,1.3-0.4L17,14.3c0.7,0.2,0.9,0.6,1,0.9c0.1,0.5,0,0.9-0.4,1.3l-1.7,1.7l5.1,5.2
				c0.5,0.5,0.5,1.3,0,1.8l-4.1,4.1C16.7,29.6,16.4,29.7,16,29.7z M9.9,22.5l5.9,6c0.1,0.1,0.2,0.1,0.3,0l4.1-4.1
				c0.1-0.1,0.1-0.1,0.1-0.2s0-0.1-0.1-0.2l-5.9-5.9l2.5-2.5c0.2,0,0.2,0,0.2-0.1c0,0,0-0.1-0.2-0.2L5.4,13.2c-0.1,0-0.1,0-0.2,0
				l-0.1,0.1c0,0-0.1,0.1-0.1,0.2l2,11.4c0,0.1,0.1,0.2,0.2,0.2s0.1,0,0.3-0.1L9.9,22.5z M15.9,28.1l-5.8-6C10,22,9.9,22,9.8,22.1
				l-2.3,2.2L5.6,13.7l10.6,2L13.8,18c0,0-0.1,0.1-0.1,0.2s0,0.1,0.1,0.2l5.8,6L15.9,28.1z M10,20.9c0.4,0,0.6,0.1,0.9,0.4l0,0
				l5,5.2l2.3-2.3l-5.1-5.3c-0.5-0.5-0.5-1.3,0-1.8l0.9-0.8l-7.1-1.4l1.3,7.2l0.9-0.9C9.4,21,9.6,20.9,10,20.9z"/>
		</g>
	</g>
</g>
<g>
	<g>
		<g>
			<path class="st0" d="M23.4,13.6L23.4,13.6h2.9l0.1,6.3c0,0.4,0.4,0.8,0.8,0.8H33c0.2,0,0.4-0.1,0.5-0.2c0.2-0.2,0.2-0.3,0.2-0.5
				l-0.1-6.3h2.9c0.3,0,0.5-0.2,0.7-0.4s0.1-0.5-0.1-0.8l-6.6-9.7c-0.2-0.2-0.4-0.3-0.7-0.3c-0.2,0-0.5,0.2-0.6,0.3l-6.6,9.6
				c-0.2,0.2-0.2,0.5-0.1,0.8C22.8,13.4,23.1,13.6,23.4,13.6z M30,4.5l5.2,7.4H33c-0.2,0-0.4,0.1-0.5,0.2s-0.2,0.3-0.2,0.5l0.1,6.3
				H28l-0.1-6.3c0-0.4-0.4-0.8-0.8-0.8l0,0h-2.2L30,4.5z"/>
			<path d="M32.9,21.2h-5.8c-0.7,0-1.3-0.6-1.3-1.3l-0.1-5.8h-2.4c-0.5,0-0.9-0.3-1.2-0.8c-0.1-0.4-0.2-0.9,0.1-1.3l6.6-9.7
				c0.1-0.1,0.5-0.5,1-0.5c0.4,0,0.8,0.2,1.1,0.5L31,2.4l6.6,9.7c0.3,0.5,0.3,1,0.1,1.4c-0.3,0.4-0.7,0.6-1.1,0.6h-2.4l0.1,5.8
				c0,0.4-0.1,0.7-0.4,0.9C33.6,21.1,33.3,21.2,32.9,21.2z M29.7,3l-6.5,9.6c0,0.1,0,0.2,0,0.3c0.1,0.1,0.1,0.1,0.2,0.1h3.5l0.1,6.9
				c0,0.1,0.2,0.3,0.2,0.3H33c0.1,0,0.1,0,0.2-0.1c0.1-0.1,0.1-0.1,0.1-0.2L33.2,13h3.5c0.1,0,0.2,0,0.3-0.2c0,0,0-0.1-0.1-0.2
				l-6.5-9.7c-0.1-0.1-0.3-0.1-0.3-0.1C29.9,2.9,29.8,2.9,29.7,3z M32.8,19.6h-5.3l-0.1-6.9c0-0.1-0.2-0.3-0.2-0.3H24l6-8.8l6.2,8.9
				H33c-0.1,0-0.1,0-0.2,0.1c-0.1,0.1-0.1,0.1-0.1,0.2L32.8,19.6z M28.5,18.5h3.2l-0.1-5.8c0-0.4,0.1-0.7,0.4-0.9
				c0.3-0.3,0.6-0.4,0.9-0.4h1.2L30,5.5l-4.1,6h1.2c0.7,0,1.3,0.6,1.3,1.3L28.5,18.5z"/>
		</g>
	</g>
</g>
<g>
	<g>
		<g>
			<path class="st0" d="M55.2,12.8c-0.2-0.2-0.5-0.2-0.7-0.2l-11.4,2.2c-0.3,0.1-0.5,0.2-0.6,0.5s0,0.5,0.2,0.8l2.1,2.1l-5.5,5.6
				c-0.3,0.3-0.3,0.8,0,1.1l4.1,4.2c0.2,0.2,0.3,0.2,0.5,0.2l0,0c0.2,0,0.4-0.1,0.5-0.2l5.6-5.6l2.1,2.1c0.2,0.2,0.5,0.3,0.8,0.2
				c0.3-0.1,0.5-0.3,0.5-0.6l2-11.4C55.5,13.3,55.4,13,55.2,12.8z M52.2,23.2l-1.6-1.5c-0.2-0.2-0.3-0.2-0.5-0.2s-0.4,0.1-0.5,0.2
				L44,27.3l-3-3l5.5-5.6c0.3-0.3,0.3-0.8,0-1.1l-1.6-1.5l8.9-1.7L52.2,23.2z"/>
			<path d="M44,29.7c-0.4,0-0.6-0.1-0.9-0.4L39,25.1c-0.5-0.5-0.5-1.3,0-1.8l5.1-5.2l-1.7-1.7C42,16,41.9,15.6,42,15.1
				c0.1-0.3,0.3-0.8,1-0.9L54.6,12c0.3,0,0.8,0.1,1.1,0.4l0.1,0.1c0.2,0.3,0.3,0.7,0.3,1v0.1l-2,11.4c-0.2,0.7-0.5,0.9-0.8,1
				c-0.4,0.2-1,0.1-1.4-0.3L50.2,24L45,29.3C44.6,29.6,44.3,29.7,44,29.7z M54.6,13.1l-11.4,2.2c-0.2,0-0.2,0.1-0.2,0.2
				s0,0.1,0.1,0.3l2.5,2.5l-5.8,5.9c-0.1,0.1-0.1,0.1-0.1,0.2s0,0.1,0.1,0.2l4.1,4.2c0.1,0.1,0.2,0.1,0.3,0l5.9-6l2.5,2.5
				c0.1,0.1,0.1,0.1,0.1,0.1l0.1-0.1c0,0,0.1,0,0.2-0.2l2-11.3c0-0.1,0-0.2-0.1-0.3C54.8,13.1,54.7,13.1,54.6,13.1z M43.9,28
				l-3.8-3.8l5.8-6C46,18.1,46,18.1,46,18s0-0.1-0.1-0.2l-2.4-2.2l10.6-2l-1.8,10.6L50,22c-0.2-0.2-0.2-0.1-0.3,0L43.9,28z
				 M41.6,24.3l2.3,2.3l5.2-5.3c0.5-0.5,1.3-0.5,1.8,0l0.9,0.8L53,15l-7.1,1.4l0.9,0.8c0.5,0.5,0.5,1.3,0,1.8L41.6,24.3z"/>
		</g>
	</g>
</g>
<g>
	<g>
		<g>
			<path class="st0" d="M30.1,40.7c4.3,0,7.9-3.6,7.9-7.9s-3.6-7.9-7.9-7.9s-7.8,3.6-7.8,7.9S25.8,40.7,30.1,40.7z M30.1,26.6
				c3.5,0,6.3,2.9,6.3,6.3s-2.9,6.3-6.3,6.3s-6.3-2.9-6.3-6.3C23.8,29.3,26.6,26.6,30.1,26.6z"/>
			<path d="M30.1,41.2c-4.6,0-8.3-3.8-8.3-8.4s3.7-8.4,8.3-8.4s8.4,3.8,8.4,8.4S34.7,41.2,30.1,41.2z M30.1,25.5
				c-4,0-7.3,3.3-7.3,7.3c0,4.1,3.3,7.3,7.3,7.3c4.1,0,7.3-3.3,7.3-7.3C37.4,28.8,34.1,25.5,30.1,25.5z M30.1,39.7
				c-3.8,0-6.9-3.1-6.9-6.9c0.1-3.8,3.1-6.9,6.9-6.9S37,29,37,32.8S33.9,39.7,30.1,39.7z M30.1,27.1c-3.2,0-5.7,2.6-5.8,5.8
				c0,3.2,2.6,5.8,5.8,5.8s5.8-2.6,5.8-5.8S33.3,27.1,30.1,27.1z"/>
		</g>
	</g>
</g>
<g>
	<g>
		<g>
			<path class="st0" d="M34.5,43.1h-9c-5.2,0-9.3,4.2-9.3,9.3v3.9c0,0.5,0.3,0.8,0.8,0.8h26c0.5,0,0.8-0.3,0.8-0.8v-3.9
				C43.8,47.3,39.6,43.1,34.5,43.1z M42.3,55.6H17.7v-3.2c0-4.3,3.5-7.8,7.8-7.8h9c4.3,0,7.8,3.5,7.8,7.8V55.6z"/>
			<path d="M43,57.7H17c-0.8,0-1.3-0.5-1.3-1.3v-3.9c0-5.4,4.4-9.9,9.9-9.9h9c2.6,0,5.1,1,7,2.9c1.8,1.9,2.8,4.3,2.8,6.9v3.9
				C44.3,57.1,43.7,57.7,43,57.7z M25.5,43.6c-4.9,0-8.8,4-8.8,8.8v3.9c0,0.2,0.1,0.2,0.2,0.2h26c0.2,0,0.2-0.1,0.2-0.2v-3.9
				c0-2.3-0.9-4.5-2.5-6.2c-1.7-1.7-3.9-2.6-6.2-2.6H25.5z M42.8,56.1H17.2v-3.7c0-4.6,3.7-8.3,8.3-8.3h9c4.6,0,8.3,3.7,8.3,8.3
				V56.1z M18.3,55.1h23.5v-2.6c0-4-3.3-7.3-7.3-7.3h-9c-4,0-7.3,3.3-7.3,7.3L18.3,55.1L18.3,55.1z"/>
		</g>
	</g>
</g>
</svg>
