<?xml version="1.0" encoding="utf-8"?>
<!-- Generator: Adobe Illustrator 22.1.0, SVG Export Plug-In . SVG Version: 6.00 Build 0)  -->
<svg version="1.1" id="Camada_1" xmlns="http://www.w3.org/2000/svg" xmlns:xlink="http://www.w3.org/1999/xlink" x="0px" y="0px"
	 viewBox="0 0 60 60" style="enable-background:new 0 0 60 60;" xml:space="preserve">
<style type="text/css">
	.st0{fill:#010101;}
</style>
<g>
	<g>
		<g>
			<g>
				<g>
					<path class="st0" d="M14.6,31.1c3.9,0,7.2-3.2,7.2-7.2s-3.2-7.2-7.2-7.2S7.5,20,7.5,23.9S10.7,31.1,14.6,31.1z M14.6,18.2
						c3.2,0,5.8,2.6,5.8,5.8s-2.6,5.8-5.8,5.8S8.8,27.1,8.8,24C8.9,20.7,11.4,18.2,14.6,18.2z"/>
					<path d="M14.6,31.5c-4.2,0-7.5-3.4-7.5-7.6c0-4.2,3.4-7.6,7.5-7.6c4.2,0,7.6,3.4,7.6,7.6C22.2,28.1,18.8,31.5,14.6,31.5z
						 M14.6,17.2c-3.7,0-6.6,3-6.6,6.7c0,3.7,3,6.7,6.6,6.7c3.7,0,6.7-3,6.7-6.7C21.3,20.2,18.3,17.2,14.6,17.2z M14.6,30.2
						c-3.4,0-6.2-2.8-6.2-6.2c0.1-3.5,2.8-6.2,6.2-6.2c3.4,0,6.2,2.8,6.2,6.2S18,30.2,14.6,30.2z M14.6,18.7c-2.9,0-5.2,2.3-5.3,5.3
						c0,2.9,2.4,5.3,5.3,5.3s5.3-2.4,5.3-5.3S17.5,18.7,14.6,18.7z"/>
				</g>
			</g>
		</g>
		<g>
			<g>
				<g>
					<path class="st0" d="M18.6,33.2h-8.1c-4.7,0-8.5,3.8-8.5,8.5v3.6c0,0.4,0.3,0.7,0.7,0.7h23.7c0.4,0,0.7-0.3,0.7-0.7v-3.6
						C27.1,37.1,23.3,33.2,18.6,33.2z M25.7,44.6H3.3v-2.9c0-3.9,3.2-7.1,7.1-7.1h8.1c3.9,0,7.1,3.2,7.1,7.1V44.6z"/>
					<path d="M26.3,46.5H2.6c-0.7,0-1.2-0.5-1.2-1.2v-3.6c0-4.9,4-9,9-9h8.1c2.4,0,4.7,0.9,6.3,2.7c1.7,1.7,2.6,3.9,2.5,6.3v3.6
						C27.5,46,27,46.5,26.3,46.5z M10.4,33.7c-4.4,0-8,3.6-8,8.1v3.6c0,0.2,0.1,0.3,0.3,0.3h23.7c0.2,0,0.3-0.1,0.3-0.3v-3.6
						c0-2.1-0.8-4.1-2.3-5.7c-1.5-1.5-3.5-2.4-5.7-2.4H10.4z M26.1,45.1H2.9v-3.3c0-4.2,3.4-7.5,7.5-7.5h8.1c4.2,0,7.5,3.4,7.5,7.5
						V45.1z M3.8,44.2h21.4v-2.4c0-3.7-3-6.6-6.6-6.6h-8.1c-3.7,0-6.6,3-6.6,6.6V44.2z"/>
				</g>
			</g>
		</g>
	</g>
	<g>
		<g>
			<path d="M57.7,15.2H40.8c-0.6,0-1.1,0.5-1.1,1.1V18H38c-0.6,0-1.1,0.5-1.1,1.1v1.7h-1.7c-0.6,0-1.1,0.5-1.1,1.1v16.9l7.9,7.9
				h10.1c0.6,0,1.1-0.5,1.1-1.1V44h1.7c0.6,0,1.1-0.5,1.1-1.1v-1.7h1.7c0.6,0,1.1-0.5,1.1-1.1V16.4C58.8,15.7,58.3,15.2,57.7,15.2z
				 M36.2,39.4h5.8v5.8L36.2,39.4z M52.1,45.6h-9v-7.3h-7.9V22h16.9V45.6z M54.9,42.8h-1.7v-22H38v-1.7h16.9V42.8z M57.7,40H56V18
				H40.8v-1.7h16.9V40z"/>
			<path d="M52.1,47H41.8l-0.1-0.1L33.8,39V22c0-0.7,0.6-1.3,1.3-1.3h1.5v-1.5c0-0.7,0.6-1.3,1.3-1.3h1.5v-1.5
				c0-0.7,0.6-1.3,1.3-1.3h16.9c0.7,0,1.3,0.6,1.3,1.3V40c0,0.7-0.6,1.3-1.3,1.3h-1.5v1.5c0,0.7-0.6,1.3-1.3,1.3h-1.5v1.5
				C53.4,46.4,52.8,47,52.1,47z M42,46.6h10.1c0.5,0,0.9-0.4,0.9-0.9v-1.9h1.9c0.5,0,0.9-0.4,0.9-0.9V41h1.9c0.5,0,0.9-0.4,0.9-0.9
				V16.4c0-0.5-0.4-0.9-0.9-0.9H40.8c-0.5,0-0.9,0.4-0.9,0.9v1.9H38c-0.5,0-0.9,0.4-0.9,0.9V21h-1.9c-0.5,0-0.9,0.4-0.9,0.9v16.8
				L42,46.6z M52.2,45.8h-9.4v-7.3H35V21.8h17.3V45.8z M43.2,45.5h8.6V22.2H35.3v16h7.9V45.5z M42.1,45.7l-6.4-6.4h6.4V45.7z
				 M36.6,39.6l5.1,5.1v-5.1H36.6z M55.1,43H53V21H37.8V19h17.3V43z M53.4,42.6h1.3V19.4H38.2v1.3h15.2V42.6z M57.9,40.2h-2.1v-22
				H40.6v-2.1h17.3V40.2z M56.2,39.8h1.3V16.5H41v1.3h15.2V39.8z"/>
		</g>
	</g>
</g>
</svg>
