<?xml version="1.0" encoding="utf-8"?>
<!-- Generator: Adobe Illustrator 21.0.0, SVG Export Plug-In . SVG Version: 6.00 Build 0)  -->
<svg version="1.1" id="Camada_1" xmlns="http://www.w3.org/2000/svg" xmlns:xlink="http://www.w3.org/1999/xlink" x="0px" y="0px"
	 viewBox="0 0 60 60" style="enable-background:new 0 0 60 60;" xml:space="preserve">
<style type="text/css">
	.st0{fill:#010101;}
</style>
<g>
	<g>
		<g>
			<g>
				<path class="st0" d="M30.1,33.7c4.8,0,8.7-3.9,8.7-8.7s-3.9-8.7-8.7-8.7s-8.7,3.9-8.7,8.7S25.3,33.7,30.1,33.7z M30.1,17.9
					c3.9,0,7.1,3.2,7.1,7.1s-3.2,7.1-7.1,7.1S23,28.9,23,25C23.1,21,26.2,17.9,30.1,17.9z"/>
				<path d="M30.1,34.1c-5,0-9.1-4.2-9.1-9.2s4.1-9.3,9.1-9.3c5.1,0,9.2,4.2,9.2,9.2S35.2,34.1,30.1,34.1z M30.1,16.6
					c-4.5,0-8.2,3.7-8.2,8.3s3.7,8.3,8.2,8.3c4.6,0,8.3-3.7,8.3-8.3S34.6,16.6,30.1,16.6z M30.1,32.4c-4.2,0-7.5-3.4-7.5-7.5
					c0.1-4.2,3.4-7.4,7.5-7.4c4.2,0,7.5,3.4,7.5,7.5S34.2,32.4,30.1,32.4z M30.1,18.4c-3.6,0-6.6,2.9-6.6,6.6c0,3.6,3,6.6,6.6,6.6
					s6.6-3,6.6-6.6S33.7,18.4,30.1,18.4z"/>
			</g>
		</g>
	</g>
	<g>
		<g>
			<g>
				<path class="st0" d="M35,36.3H25c-5.8,0-10.4,4.7-10.4,10.4v4.4c0,0.5,0.4,0.9,0.9,0.9h28.9c0.5,0,0.9-0.4,0.9-0.9v-4.4
					C45.4,41,40.8,36.3,35,36.3z M43.7,50.2H16.4v-3.5c0-4.8,3.9-8.7,8.7-8.7h10c4.8,0,8.7,3.9,8.7,8.7
					C43.7,46.7,43.7,50.2,43.7,50.2z"/>
				<path d="M44.4,52.4H15.5c-0.7,0-1.3-0.5-1.3-1.3v-4.4c0-6,4.9-10.9,10.9-10.9h10c2.9,0,5.6,1.2,7.6,3.2c2,2,3.1,4.7,3.1,7.6v4.4
					C45.7,51.8,45.1,52.4,44.4,52.4z M25,36.7c-5.5,0-10,4.4-10,10v4.4c0,0.3,0.1,0.4,0.4,0.4h28.9c0.3,0,0.4-0.1,0.4-0.4v-4.4
					c0.1-2.6-0.9-5.1-2.8-7c-1.9-1.9-4.4-3-7.1-3C34.9,36.7,25,36.7,25,36.7z M44.1,50.7H15.9v-3.9c0-5,4.1-9.1,9.1-9.1h10
					c5,0,9.1,4.1,9.1,9.1V50.7z M16.8,49.8h26.4v-3.1c0-4.5-3.7-8.2-8.2-8.2H25c-4.5,0-8.2,3.7-8.2,8.2
					C16.8,46.7,16.8,49.8,16.8,49.8z"/>
			</g>
		</g>
	</g>
</g>
</svg>
