<?xml version="1.0" encoding="utf-8"?>
<!-- Generator: Adobe Illustrator 21.0.0, SVG Export Plug-In . SVG Version: 6.00 Build 0)  -->
<svg version="1.1" id="Camada_1" xmlns="http://www.w3.org/2000/svg" xmlns:xlink="http://www.w3.org/1999/xlink" x="0px" y="0px"
	 viewBox="0 0 1366 768" style="enable-background:new 0 0 1366 768;" xml:space="preserve">
<style type="text/css">
	.st0{fill:#7E5F08;}
	.st1{fill:#00D0DF;}
	.st2{fill:#FFA11A;}
	.st3{fill:#F16522;}
	.st4{fill:#92725C;}
	.st5{fill:#F1C9A9;}
	.st6{fill:#F1D1B7;}
	.st7{fill:#9C053B;}
	.st8{fill:#FED7B4;}
	.st9{fill:#2D7ABE;}
	.st10{fill:#FEFEFE;}
	.st11{fill:#DE6A74;}
	.st12{fill:#F7E9DF;}
	.st13{fill:#F7E6D9;}
	.st14{fill:#B79E8D;}
	.st15{fill:#D2B7A4;}
	.st16{fill:#F1EBE6;}
	.st17{fill:#F8F1EB;}
	.st18{fill:#5C4E55;}
	.st19{fill:#1A6079;}
	.st20{fill:#484C58;}
	.st21{fill:#2E4341;}
</style>
<g>
	<path class="st0" d="M1354.1,770c-42.7,0-85.3,0-128,0c-0.6-0.3-0.9-0.6-0.9-1.1c0.1-0.5,0.2-0.8,0.4-0.8l0.8-0.2
		c2.8-3.7,6.8-3.8,10.9-3.8c35.2-0.2,70.4-0.2,105.7,0c4.1,0,8.1,0.3,10.9,3.9c0.3-0.2,0.7-0.1,1,0.1
		C1355.1,769,1354.9,769.6,1354.1,770z"/>
	<path class="st1" d="M1354,768c-42.5,0-85,0-127.5,0c-13.7-80.8-27.4-161.6-41.1-242.4c-7.8-46.2-15.6-92.3-23.4-138.5
		c-0.6-3.7-2.6-8,3.3-9.5c1.9-3.9,5.6-4.5,9.3-5.1c27.3-4.6,54.4-11.1,82.1-13.3c4.7-0.4,9.4-4.1,14.1,0.1
		c7.1-1.9,10.3-0.6,11.9,8.1c21.1,119.7,42.8,239.2,64.3,358.8C1349.4,740.1,1351.6,754.1,1354,768z"/>
	<path class="st2" d="M691.1,871c-42.5-0.1-85-0.2-127.5-0.3c16.8-85.2,33.6-170.4,50.4-255.6c2.3-11.5,5-22.9,6.6-34.5
		c1.1-8.2,4.1-12.2,12.7-10.1c8.5-3.5,16.9,0.2,25.1,1.3c23.2,3.1,46.1,8,69.2,11.6c4.3,0.7,8.5,1.7,11.2,5.6c4.3,1.4,3.9,4.2,3.2,8
		c-12.4,67.2-24.7,134.5-36.9,201.7c-4.4,23.9-8.5,47.9-12.8,71.8C691.8,870.5,691.4,870.6,691.1,871z"/>
	<path class="st3" d="M135.7,768c-42.5,0-85,0-127.5,0c13.7-69.9,27.5-139.8,41.2-209.7c4.5-23,9.6-45.9,13.5-69
		c1.4-8.2,4-12.3,12.7-10.1c8.2-3.9,16.2,0.2,24,1.2c23.4,2.9,46.5,8.1,69.9,11.7c4.2,0.6,8.5,1.8,11.2,5.6
		c7.3,2.2,3.5,7.7,2.8,11.5c-7.1,40.3-14.7,80.6-22,120.9c-8.1,44.2-16.2,88.5-24.3,132.7C136.9,764.5,136.2,766.3,135.7,768z"/>
	<path class="st4" d="M82.7,458.9c5.2,0.8,5.9-2.9,6.6-6.6c5.6-28,11.3-56.1,17-84.1c0.9-4.5,1.7-8.9,4.8-12.8
		C139.7,319.7,160.6,280,173,236c2.8-2.4,6.7-2.4,9.5-4.8c7.1-12.5,7.1-12.7-1.7-21.3c11.6-7.9,25.9,0.6,27.1,16.5
		c0.9,11.7-0.2,23.4-2.8,34.9c-3.5,15.6-7.3,31.1-11,46.9c14.5,0,29,0.2,43.5-0.1c8.2-0.2,14.7,2.3,18.4,9.7
		c3.9,7.7,3.9,15.7-1.5,22.7c-2.6,3.4-3.2,5.3-0.8,9.3c5,8.3,3.8,16.9-3,23.7c-3.4,3.4-3.2,5.1-1.1,9c4.5,8.4,3.7,16.9-3.1,23.9
		c-2.9,3-2.8,4.9-1.2,8.6c5.6,13-1.5,23.7-15.5,24c-12,0.3-24,0.4-36.1,0.6c-3.1,0-6.2-0.5-6.8,4c-1.4,10.9-5.3,21.5-4.7,32.8
		c-3.5,4-7.9,2.7-12,1.9c-26.8-5.1-53.7-9.3-80.4-14.3C86.6,463.4,82.7,463.8,82.7,458.9z"/>
	<path class="st5" d="M352.7,647.3c-1.8-10.3-3.8-20.6-5.3-31c-0.6-4.4-2.6-5.6-6.7-5.6c-12,0.1-24.1-0.1-36.1-0.3
		c-14.5-0.2-22-11.4-15.8-24.5c2-4.2,0.8-5.6-1.6-8.2c-6.3-6.9-7-15-3.2-23.2c1.8-3.9,2.6-6.2-1.1-9.9c-6.4-6.4-7.8-14.7-3.1-22.9
		c2-3.5,3-5.8-0.2-9.6c-5.8-7.1-6-15.3-1.5-23.3c4.3-7.6,11.3-9.8,19.6-9.5c12.3,0.4,24.7,0.1,37,0.7c5.5,0.3,5-1.3,4-5.7
		c-5-20.6-11.5-41-12.7-62.4c-0.6-10.2-1.6-20.6,6.8-28.6c5.4-5.2,11.3-8.9,18.7-2.9c-7.4,8-5.5,15.5,1,22.9
		c2.4,1.7,5.2,1.7,7.9,1.9c3.7,10.7,7.5,21.4,10.9,32.2c8.7,27.4,23.2,51.5,40.7,74c9.2,11.8,15.7,24.4,18.2,39.6
		c4.4,26.7,10.4,53.2,15.7,79.7c-1.4,4.1-4.8,5.3-8.6,6c-23.9,4.4-47.8,8.4-71.7,12.7C361.4,650.1,356.4,651.8,352.7,647.3z"/>
	<path class="st6" d="M1172.6,113.7c2,6.1,4.1,12.2,6,18.4c10.1,32.7,25.1,62.8,46.8,89.4c9.1,11.2,14.5,23.8,17,38.2
		c4.6,26.7,10.5,53.2,15.9,79.7c-1.8,4.3-5.9,5.2-9.8,5.9c-24.5,4.5-49,8.6-73.5,12.9c-3.5,0.6-7.5,1.4-10.3-2.1
		c-1.6-9.1-3.8-18.2-4.5-27.4c-0.6-8.4-4.4-9.8-11.8-9.4c-10.5,0.5-21,0-31.5-0.2c-14.7-0.3-22.4-11.2-16.2-24.4
		c1.8-4,1.4-5.6-1.2-8.4c-6.7-7.1-7.2-15.7-3-24c2.1-4.2,1.5-6-1.5-9.1c-6.3-6.7-7.7-14.7-3.1-23c2-3.5,2.8-5.8-0.2-9.6
		c-5.4-6.8-5.9-14.8-1.8-22.6c4-7.7,10.6-10.4,19.2-10.1c12.3,0.5,24.7,0.2,37,0.6c5.3,0.2,5.8-1,4.6-6.3
		c-5.4-22.4-12.4-44.6-12.9-68c-0.2-9.3,1.3-17.9,8.9-24.2c5.7-4.7,11.8-6.8,18-0.6c-8.7,8.9-8.7,9.7,0,22.6
		C1167.1,113.7,1169.9,113.6,1172.6,113.7z"/>
	<path class="st4" d="M741.1,299.7c12.1-4.8,23.4,4,24.4,18.6c1.4,20.7-3.9,40.4-8.5,60.2c-1.2,5.1-2,10.4-3.9,15.2
		c-2.2,5.6,0.1,6.2,4.8,6.1c12.6-0.2,25.3-0.1,38-0.3c8.2-0.2,14.4,2.9,18.1,10.4c3.7,7.5,3.6,15.2-1.7,21.7c-3,3.6-2.6,5.9-0.6,9.7
		c4.6,8.5,3.6,16.9-3.3,23.8c-3,3-3.7,5.3-1,8.6c0.2,0.2,0.3,0.5,0.4,0.8c3.7,9.2,1.4,16.8-4.1,25c-4.7,7,5.8,16.4-1.7,24.6
		c-5,5.5-11,6.6-17.5,6.8c-10.2,0.3-20.4,0.5-30.5,0c-6.8-0.4-9.4,2.3-10.2,8.6c-1.2,9.2-3,18.2-4.6,27.4c-2.6,3.4-6.2,3.6-10,2.9
		c-26.5-4.7-53.1-8.8-79.5-14.2c-3-0.6-6.3-0.8-6.1-5.1c4.6-3.4,3.7-8.9,4.7-13.5c5.4-25.3,10.5-50.7,15.5-76.1
		c1.3-6.8,3.8-12.8,8.1-18.3c25.2-32.1,45-66.9,55.9-106.5c1.1-4.1,2.4-8.2,3.6-12.3c2.9-0.1,5.9,0.8,8.6-0.9
		C746.5,315.5,745.5,307.7,741.1,299.7z"/>
	<path class="st7" d="M1109.3,768c-41.5,0.1-82.9,0.2-124.4,0.4c-0.4-0.2-0.9-0.4-1.4-0.5c-6-36.4-11.9-72.7-18-109.1
		c-3.3-19.7-6.1-39.5-10.3-59c-2-9.3-0.6-14.5,9.5-15.3c5.3-6.6,13.4-5.7,20.5-7c20.6-3.9,41.3-7,61.9-11c4.2-0.8,7.9-0.2,11.7,1.5
		c14.8-0.7,14.8-0.8,17.7,15c10.8,59.5,21.6,119,32.4,178.5C1109.3,763.7,1109.2,765.9,1109.3,768z"/>
	<path class="st8" d="M969.9,326.9c2.8,8.1,5.7,16.2,8.3,24.4c9.5,30.7,25.5,57.8,45.2,82.9c8,10.1,13,21.1,15.2,33.9
		c3.8,22.1,8.7,44,13.1,66c-5.8,2.8-12.3,3.6-18.5,4.4c-15.6,2.2-31.1,5.2-46.6,7.9c-9.6,1.7-18.9,3.5-28.6,2.4
		c-1.9-18.5-1.9-18.4-20.1-18.5c-8.3,0-16.6-0.4-25-0.6c-13.6-0.3-20.9-10.7-15.9-23.3c1.5-3.6,2.5-5.8-1-9.3
		c-6.6-6.9-7.5-15.6-2.9-23.9c2.3-4,1.8-5.8-1.3-9c-7-6.9-7.3-15.5-2.8-23.8c1.9-3.5,2.3-5.4-0.4-8.6c-5.7-6.8-5.9-14.8-2.1-22.5
		c3.8-7.8,10.4-10.7,19-10.4c12.3,0.4,24.7,0.1,37,0.5c5.7,0.2,6.1-1.2,4.8-6.7c-5.6-23.6-13.3-46.9-12.7-71.7
		c0.2-8.3,2.9-15.2,9.2-20.3c5.4-4.4,11.4-6.2,17.4-0.5c-8.4,10.8-7.1,16.8,5.2,23.7C967.8,324.8,969,325.7,969.9,326.9z"/>
	<path class="st9" d="M491.6,768c-41.8-0.1-83.5-0.1-125.3-0.2c-5.4-29.5-10.8-59.1-16.2-88.6c-0.7-3.7-3.1-8,3-9.7
		c5.9-6.9,14.3-6.2,22.1-7.7c25.1-4.8,50.3-8.9,75.6-12.7c3-0.5,5.5,0.1,7.7,2c8.3-3.1,10.9,0.5,12.4,8.6
		C477.4,695.8,484.6,731.9,491.6,768z"/>
	<path class="st10" d="M458.5,651c-35.1,6.2-70.3,12.3-105.4,18.5c-1.1-6-2.1-12-3.5-18c-0.7-2.9,0.5-3.9,3-4.2
		c31.1-5.6,62.1-11.1,93.2-16.7c6.7-1.6,10.4,0.5,10.6,7.9C456.6,642.7,457.8,646.9,458.5,651z"/>
	<path class="st10" d="M1164.7,356c31.2-5.6,62.4-11.1,93.6-16.7c7.2-2.9,9.5,1,10.2,7.3c0.5,4.3,1.5,8.4,2.3,12.7
		c-35.2,6.1-70.3,12.2-105.5,18.3c-1.1-5.7-2.1-11.5-3.4-17.2C1161.2,357.6,1161.9,356.2,1164.7,356z"/>
	<path class="st10" d="M643.5,550.4c31.8,5.8,63.6,12,95.6,16.4c5.2,2.7,1.8,7,1.6,10.5c-0.2,3.9-1.3,7.8-2,11.7
		c-27.7-4.6-55.3-9.1-83-13.8c-7.6-1.3-15-3.1-22.6-4.6c0.9-5.1,2.1-10.2,2.6-15.4C636.4,549.9,639.5,549.5,643.5,550.4z"/>
	<path class="st10" d="M82.7,458.9c24.1,4.2,48.3,8.3,72.4,12.5c9.1,1.6,18.1,3.3,27.2,5c4.2,7.4-1.3,14.1-1.5,21.2
		c-35.2-5.1-70.3-11.2-105.1-18.4c0.9-5.4,1.9-10.7,2.8-16.1C78.8,460.6,79,458,82.7,458.9z"/>
	<path class="st8" d="M962.3,568.3c1.2,0.3,2.8,1.1,3.6,0.7c9.2-5.7,20-4.4,29.8-5.9c8.9-1.3,17.5-5.6,26.8-4.5
		c3.7,0.4,7.5,0.5,10.5-2.3c2.1-2,4.2-2.3,6.8-1.3c6.6,2.6,11.2-0.6,15.3-5.3c1.3,6.1,2.6,12.3,3.8,18.4c-26.2,6.3-53,9.6-79.4,14.6
		c-4.8,0.9-9.7,1.3-14.5,2C964,579.1,963.1,573.7,962.3,568.3z"/>
	<path class="st11" d="M969.9,326.9c-10.9,0.4-20.4-8.8-19.7-19.6c0.5-6.8,6.3-6.2,11-6.9C966.1,308.6,967.3,318,969.9,326.9z"/>
	<path class="st12" d="M1163.1,115.3c-4.3-2.5-5.5-7.1-7.4-11.1c-5-11-3.2-13.7,8.9-14.8c3.9,4.9,4.1,11,5.6,16.7
		C1169.8,110.7,1167.3,113.7,1163.1,115.3z"/>
	<path class="st13" d="M350.9,406.5c-5.2-3.5-7-9.3-8.7-14.7c-2.5-7.9,3.2-10.1,9.3-11.6c5.3,4.5,4.6,11.3,6.6,17.1
		C357.6,401.9,355.1,404.8,350.9,406.5z"/>
	<path class="st14" d="M741.1,299.7c11.6,5.9,11.7,13.3,0.2,26c-4.6-0.6-7.1-3.3-7.9-7.7C735.8,311.9,733.8,303.8,741.1,299.7z"/>
	<path class="st14" d="M180.9,209.9c11.9,0.6,13.8,3.5,9.6,14.6c-1.4,3.6-2.7,7.4-6.4,9.6c-5,0-6.8-3.7-8.6-7.4
		C177.2,221.1,177.6,215,180.9,209.9z"/>
	<path class="st15" d="M175.4,226.6c4.1,1,6.5,4.1,8.6,7.4c-3.2,3.5-6.8,4.2-11,1.9C172.6,232.6,174.3,229.7,175.4,226.6z"/>
	<path class="st16" d="M1163.1,115.3c0.6-4.5,3.9-6.8,7.2-9.2c1.6,2.2,2.2,4.8,2.2,7.5C1170.3,119,1166.7,117,1163.1,115.3z"/>
	<path class="st17" d="M350.9,406.5c0.5-4.5,3.9-6.8,7.2-9.2c1.6,2.3,2.2,4.9,2.3,7.7C358,410.2,354.4,408.2,350.9,406.5z"/>
	<path class="st15" d="M733.4,318c3.7,1.4,6.4,4,7.9,7.7c-4,2.6-8,5-10.1-2C732,321.8,732.7,319.9,733.4,318z"/>
	<path class="st18" d="M448.1,643.4c0,2.9-1.3,4.5-4.4,4.5c-2.4,0-4.1-1-4.5-3.5c-0.4-2.9,1.1-4.7,4-5
		C446.1,639,447.8,640.5,448.1,643.4z"/>
	<path class="st19" d="M1260.5,352.2c-0.3,3.1-1.9,4.5-4.9,4.3c-3-0.1-4.5-1.9-4.3-4.7c0.2-2.8,1.8-4.6,4.8-4.4
		C1259,347.7,1260.3,349.6,1260.5,352.2z"/>
	<path class="st20" d="M647.5,559.1c2.9,0,4.8,1.1,4.9,4.2c0.1,2.9-1.4,4.7-4.2,4.9c-2.8,0.2-4.7-1.4-5-4.3
		C643,561.1,644.7,559.5,647.5,559.1z"/>
	<path class="st21" d="M90.4,477c-2.8-0.2-4.8-1.7-4.8-4.5c-0.1-2.8,1.4-4.6,4.4-4.7c2.9-0.1,4.7,1.5,4.9,4.3
		C95,475,93,476.3,90.4,477z"/>
	<circle class="st10" cx="966.5" cy="560.5" r="14.8"/>
	<circle class="st10" cx="988.8" cy="554.9" r="14.8"/>
	<circle class="st10" cx="1011.1" cy="551.2" r="14.8"/>
	<circle class="st10" cx="1031.4" cy="547.5" r="14.8"/>
	<circle class="st10" cx="1048.1" cy="543.8" r="14.8"/>
</g>
</svg>
