<?xml version="1.0" encoding="utf-8"?>
<!-- Generator: Adobe Illustrator 22.1.0, SVG Export Plug-In . SVG Version: 6.00 Build 0)  -->
<svg version="1.1" id="Camada_1" xmlns="http://www.w3.org/2000/svg" xmlns:xlink="http://www.w3.org/1999/xlink" x="0px" y="0px"
	 viewBox="0 0 60 60" style="enable-background:new 0 0 60 60;" xml:space="preserve">
<path d="M57,4.8v34.9c0,0.7-0.6,1.2-1.2,1.2h-10c-0.7,0-1.2-0.6-1.2-1.2s0.6-1.2,1.2-1.2h8.7V6.1H4.7v32.4h6.2
	c0.7,0,1.2,0.6,1.2,1.2S11.6,41,10.9,41H3.4c-0.7,0-1.2-0.6-1.2-1.2V4.8c0-0.7,0.6-1.2,1.2-1.2h52.3C56.4,3.6,57,4.2,57,4.8z
	 M44.4,32.8l-9.9,22.2v2.2c0,0.7-0.6,1.2-1.2,1.2H10.9c-0.7,0-1.2-0.6-1.2-1.2v-7.5c0-2.1,1.7-3.7,3.7-3.7h17.5c1.8,0,3.3,1.3,3.7,3
	l7.7-17.2c0.3-0.6,1-0.9,1.6-0.6C44.4,31.4,44.7,32.1,44.4,32.8z M32.1,49.7c0-0.7-0.6-1.2-1.2-1.2H13.4c-0.7,0-1.2,0.6-1.2,1.2v6.2
	h19.9v-1.2c0,0,0,0,0-0.1V49.7z M22.1,43.5c-4.1,0-7.5-3.4-7.5-7.5s3.4-7.5,7.5-7.5s7.5,3.4,7.5,7.5S26.2,43.5,22.1,43.5z M22.1,41
	c2.7,0,5-2.2,5-5c0-2.7-2.2-5-5-5s-5,2.2-5,5C17.1,38.7,19.4,41,22.1,41z"/>
</svg>
