<?xml version="1.0" encoding="utf-8"?>
<!-- Generator: Adobe Illustrator 21.0.0, SVG Export Plug-In . SVG Version: 6.00 Build 0)  -->
<svg version="1.1" id="Camada_1" xmlns="http://www.w3.org/2000/svg" xmlns:xlink="http://www.w3.org/1999/xlink" x="0px" y="0px"
	 viewBox="0 0 60 60" style="enable-background:new 0 0 60 60;" xml:space="preserve">
<style type="text/css">
	.st0{fill:#010101;}
	.st1{stroke:#000000;stroke-miterlimit:10;}
</style>
<g>
	<g>
		<g>
			<g>
				<g>
					<path class="st0" d="M30,43.5c4.1,0,7.4-3.4,7.4-7.4s-3.3-7.5-7.4-7.5s-7.3,3.3-7.3,7.4C22.7,40.1,26,43.5,30,43.5z M30,30
						c3.3,0,6,2.7,6,6c0,3.3-2.7,6-6,6s-6-2.7-6-6C24.2,32.7,26.7,30,30,30z"/>
					<path d="M30,43.9c-4.3,0-7.8-3.5-7.8-7.8s3.5-7.8,7.8-7.8c4.4,0,7.8,3.5,7.8,7.8S34.4,43.9,30,43.9z M30,28.9c-3.9,0-7,3.2-7,7
						s3.2,7,7,7s7-3.2,7-7S34,28.9,30,28.9z M30,42.4c-3.5,0-6.3-2.8-6.3-6.3c0.1-3.5,2.9-6.3,6.3-6.3c3.5,0,6.3,2.8,6.3,6.3
						C36.4,39.6,33.5,42.4,30,42.4z M30,30.4c-3,0-5.6,2.4-5.6,5.6c0,3,2.6,5.6,5.6,5.6c3.2,0,5.6-2.6,5.6-5.6S33.2,30.4,30,30.4z"
						/>
				</g>
			</g>
		</g>
		<g>
			<g>
				<g>
					<path class="st0" d="M34.3,45.7h-8.5c-4.9,0-8.9,3.9-8.9,8.9v3.8c0,0.5,0.2,0.7,0.7,0.7h24.7c0.5,0,0.7-0.2,0.7-0.7v-3.8
						C43.1,49.7,39.1,45.7,34.3,45.7z M41.7,57.6H18.3v-3c0-4.1,3.3-7.4,7.4-7.4h8.5c4.1,0,7.4,3.3,7.4,7.4V57.6z"/>
					<path d="M42.3,59.4H17.6c-0.6,0-1.1-0.5-1.1-1.1v-3.8c0-5.1,4.1-9.2,9.2-9.2h8.5c2.4,0,4.7,1,6.6,2.8c1.7,1.7,2.7,4,2.7,6.4
						v3.8C43.4,58.9,42.9,59.4,42.3,59.4z M25.7,46c-4.6,0-8.5,3.8-8.5,8.5v3.8c0,0.2,0.1,0.4,0.4,0.4h24.7c0.2,0,0.4-0.1,0.4-0.4
						v-3.8c0-2.2-0.9-4.4-2.4-6c-1.6-1.6-3.8-2.6-6-2.6H25.7z M42,57.9H18v-3.4c0-4.3,3.5-7.8,7.8-7.8h8.5c4.3,0,7.8,3.5,7.8,7.8
						V57.9z M18.7,57.2h22.5v-2.7c0-3.9-3.2-7-7-7h-8.5c-3.9,0-7,3.2-7,7v2.7H18.7z"/>
				</g>
			</g>
		</g>
	</g>
	<g>
		<g>
			<path d="M31.5,13.2H29V5.4h2.4V13.2z M31.5,17.3H29v-2.1h2.4V17.3z"/>
		</g>
	</g>
	<g>
		<path class="st1" d="M30.2,22.1c-5.8,0-10.6-4.7-10.6-10.6S24.4,0.9,30.2,0.9s10.6,4.7,10.6,10.6S36.1,22.1,30.2,22.1z M30.2,2.1
			c-5.1,0-9.4,4.1-9.4,9.4s4.1,9.4,9.4,9.4s9.4-4.1,9.4-9.4S35.5,2.1,30.2,2.1z"/>
	</g>
</g>
</svg>
